<?xml version="1.0" encoding="UTF-8" standalone="no"?>
<!-- Created with Inkscape (http://www.inkscape.org/) -->

<svg
   xmlns:dc="http://purl.org/dc/elements/1.1/"
   xmlns:cc="http://creativecommons.org/ns#"
   xmlns:rdf="http://www.w3.org/1999/02/22-rdf-syntax-ns#"
   xmlns:svg="http://www.w3.org/2000/svg"
   xmlns="http://www.w3.org/2000/svg"
   xmlns:sodipodi="http://sodipodi.sourceforge.net/DTD/sodipodi-0.dtd"
   xmlns:inkscape="http://www.inkscape.org/namespaces/inkscape"
   width="512"
   height="512"
   viewBox="0 0 135.46666 135.46666"
   version="1.1"
   id="svg3723"
   inkscape:version="0.92.4 (5da689c313, 2019-01-14)"
   sodipodi:docname="orsl.svg"
   inkscape:export-filename="C:\Users\Panda\Documents\Coding\woolsock.github.io\orslIcon.png"
   inkscape:export-xdpi="96"
   inkscape:export-ydpi="96">
  <title
     id="title3734">ORSL</title>
  <defs
     id="defs3717" />
  <sodipodi:namedview
     id="base"
     pagecolor="#ffffff"
     bordercolor="#666666"
     borderopacity="1.0"
     inkscape:pageopacity="0.0"
     inkscape:pageshadow="2"
     inkscape:zoom="1.1084077"
     inkscape:cx="167.35689"
     inkscape:cy="232.42437"
     inkscape:document-units="px"
     inkscape:current-layer="layer2"
     showgrid="false"
     inkscape:showpageshadow="false"
     borderlayer="false"
     width="512mm"
     units="px"
     objecttolerance="10"
     inkscape:window-width="1378"
     inkscape:window-height="877"
     inkscape:window-x="-8"
     inkscape:window-y="-8"
     inkscape:window-maximized="1"
     inkscape:pagecheckerboard="false" />
  <metadata
     id="metadata3720">
    <rdf:RDF>
      <cc:Work
         rdf:about="">
        <dc:format>image/svg+xml</dc:format>
        <dc:type
           rdf:resource="http://purl.org/dc/dcmitype/StillImage" />
        <dc:title>ORSL</dc:title>
      </cc:Work>
    </rdf:RDF>
  </metadata>
  <g
     inkscape:groupmode="layer"
     id="layer2"
     inkscape:label="Layer 2">
    <rect
       style="fill:#000000;stroke-width:0.26458332"
       id="rect3732"
       width="135.73125"
       height="135.99583"
       x="0"
       y="0" />
    <path
       transform="matrix(4.510271,0,0,4.3865894,-167.84571,-865.33173)"
       d="m 84.666671,241.7021 c -4.55845,5.9539 -3.666895,5.33974 -10.85437,7.47715 -7.187475,2.13741 -6.105199,2.16459 -13.176327,-0.3309 -7.071129,-2.49549 -6.211525,-1.83735 -10.465376,-8.01255 -4.253851,-6.1752 -3.945259,-5.1375 -3.757006,-12.63369 0.188252,-7.49619 -0.172038,-6.47528 4.386412,-12.42918 4.55845,-5.95389 3.666895,-5.33973 10.85437,-7.47714 7.187474,-2.13742 6.105199,-2.16459 13.176327,0.33089 7.071128,2.49549 6.211525,1.83736 10.465376,8.01256 4.253851,6.1752 3.945259,5.13749 3.757006,12.63368 -0.188252,7.49619 0.172038,6.47529 -4.386412,12.42918 z"
       inkscape:randomized="0"
       inkscape:rounded="0.56891354"
       inkscape:flatsided="true"
       sodipodi:arg2="0.96758561"
       sodipodi:arg1="0.65342634"
       sodipodi:r2="19.460577"
       sodipodi:r1="21.326468"
       sodipodi:cy="228.73752"
       sodipodi:cx="67.733337"
       sodipodi:sides="10"
       id="path4611"
       style="fill:#784421;fill-opacity:1;stroke-width:0.26458332"
       sodipodi:type="star" />
    <path
       transform="matrix(0.55606081,0,0,0.54081239,54.818599,-101.02929)"
       d="m 84.666671,241.7021 c -4.55845,5.9539 -3.666895,5.33974 -10.85437,7.47715 -7.187475,2.13741 -6.105199,2.16459 -13.176327,-0.3309 -7.071129,-2.49549 -6.211525,-1.83735 -10.465376,-8.01255 -4.253851,-6.1752 -3.945259,-5.1375 -3.757006,-12.63369 0.188252,-7.49619 -0.172038,-6.47528 4.386412,-12.42918 4.55845,-5.95389 3.666895,-5.33973 10.85437,-7.47714 7.187474,-2.13742 6.105199,-2.16459 13.176327,0.33089 7.071128,2.49549 6.211525,1.83736 10.465376,8.01256 4.253851,6.1752 3.945259,5.13749 3.757006,12.63368 -0.188252,7.49619 0.172038,6.47529 -4.386412,12.42918 z"
       inkscape:randomized="0"
       inkscape:rounded="0.56891354"
       inkscape:flatsided="true"
       sodipodi:arg2="0.96758561"
       sodipodi:arg1="0.65342634"
       sodipodi:r2="19.460577"
       sodipodi:r1="21.326468"
       sodipodi:cy="228.73752"
       sodipodi:cx="67.733337"
       sodipodi:sides="10"
       id="path4616"
       style="fill:#aa4400;fill-opacity:1;stroke-width:0.26458332"
       sodipodi:type="star" />
    <path
       transform="matrix(2.0447345,0,0,1.9879422,-128.71186,-405.1703)"
       d="m 84.666671,241.7021 c -4.55845,5.9539 -3.666895,5.33974 -10.85437,7.47715 -7.187475,2.13741 -6.105199,2.16459 -13.176327,-0.3309 -7.071129,-2.49549 -6.211525,-1.83735 -10.465376,-8.01255 -4.253851,-6.1752 -3.945259,-5.1375 -3.757006,-12.63369 0.188252,-7.49619 -0.172038,-6.47528 4.386412,-12.42918 4.55845,-5.95389 3.666895,-5.33973 10.85437,-7.47714 7.187474,-2.13742 6.105199,-2.16459 13.176327,0.33089 7.071128,2.49549 6.211525,1.83736 10.465376,8.01256 4.253851,6.1752 3.945259,5.13749 3.757006,12.63368 -0.188252,7.49619 0.172038,6.47529 -4.386412,12.42918 z"
       inkscape:randomized="0"
       inkscape:rounded="0.56891354"
       inkscape:flatsided="true"
       sodipodi:arg2="0.96758561"
       sodipodi:arg1="0.65342634"
       sodipodi:r2="19.460577"
       sodipodi:r1="21.326468"
       sodipodi:cy="228.73752"
       sodipodi:cx="67.733337"
       sodipodi:sides="10"
       id="path4620"
       style="fill:#a05a2c;fill-opacity:1;stroke-width:0.26458332"
       sodipodi:type="star" />
  </g>
  <g
     inkscape:label="Layer 1"
     inkscape:groupmode="layer"
     id="layer1"
     transform="translate(0,-161.53336)">
    <path
       sodipodi:type="star"
       style="fill:#008000;fill-opacity:1;stroke-width:0.26458332"
       id="path42"
       sodipodi:sides="10"
       sodipodi:cx="67.733337"
       sodipodi:cy="228.73752"
       sodipodi:r1="21.326468"
       sodipodi:r2="19.460577"
       sodipodi:arg1="0.65342634"
       sodipodi:arg2="0.96758561"
       inkscape:flatsided="true"
       inkscape:rounded="0.56891354"
       inkscape:randomized="0"
       d="m 84.666671,241.7021 c -4.55845,5.9539 -3.666895,5.33974 -10.85437,7.47715 -7.187475,2.13741 -6.105199,2.16459 -13.176327,-0.3309 -7.071129,-2.49549 -6.211525,-1.83735 -10.465376,-8.01255 -4.253851,-6.1752 -3.945259,-5.1375 -3.757006,-12.63369 0.188252,-7.49619 -0.172038,-6.47528 4.386412,-12.42918 4.55845,-5.95389 3.666895,-5.33973 10.85437,-7.47714 7.187474,-2.13742 6.105199,-2.16459 13.176327,0.33089 7.071128,2.49549 6.211525,1.83736 10.465376,8.01256 4.253851,6.1752 3.945259,5.13749 3.757006,12.63368 -0.188252,7.49619 0.172038,6.47529 -4.386412,12.42918 z"
       transform="matrix(4.2032943,0,0,4.0880307,-149.12817,-637.92971)" />
    <path
       sodipodi:type="star"
       style="fill:#00ae00;fill-opacity:1;stroke-width:0.26458332"
       id="path42-5"
       sodipodi:sides="10"
       sodipodi:cx="67.733337"
       sodipodi:cy="228.73752"
       sodipodi:r1="21.326468"
       sodipodi:r2="19.460577"
       sodipodi:arg1="0.65342634"
       sodipodi:arg2="0.96758561"
       inkscape:flatsided="true"
       inkscape:rounded="0.56891354"
       inkscape:randomized="0"
       d="m 84.666671,241.7021 c -4.55845,5.9539 -3.666895,5.33974 -10.85437,7.47715 -7.187475,2.13741 -6.105199,2.16459 -13.176327,-0.3309 -7.071129,-2.49549 -6.211525,-1.83735 -10.465376,-8.01255 -4.253851,-6.1752 -3.945259,-5.1375 -3.757006,-12.63369 0.188252,-7.49619 -0.172038,-6.47528 4.386412,-12.42918 4.55845,-5.95389 3.666895,-5.33973 10.85437,-7.47714 7.187474,-2.13742 6.105199,-2.16459 13.176327,0.33089 7.071128,2.49549 6.211525,1.83736 10.465376,8.01256 4.253851,6.1752 3.945259,5.13749 3.757006,12.63368 -0.188252,7.49619 0.172038,6.47529 -4.386412,12.42918 z"
       transform="matrix(1.853536,0,0,1.802708,-115.10802,-201.34658)" />
    <path
       sodipodi:type="star"
       style="fill:#00ae00;fill-opacity:1;stroke-width:0.26458332"
       id="path42-4"
       sodipodi:sides="10"
       sodipodi:cx="67.733337"
       sodipodi:cy="228.73752"
       sodipodi:r1="21.326468"
       sodipodi:r2="19.460577"
       sodipodi:arg1="0.65342634"
       sodipodi:arg2="0.96758561"
       inkscape:flatsided="true"
       inkscape:rounded="0.56891354"
       inkscape:randomized="0"
       d="m 84.666671,241.7021 c -4.55845,5.9539 -3.666895,5.33974 -10.85437,7.47715 -7.187475,2.13741 -6.105199,2.16459 -13.176327,-0.3309 -7.071129,-2.49549 -6.211525,-1.83735 -10.465376,-8.01255 -4.253851,-6.1752 -3.945259,-5.1375 -3.757006,-12.63369 0.188252,-7.49619 -0.172038,-6.47528 4.386412,-12.42918 4.55845,-5.95389 3.666895,-5.33973 10.85437,-7.47714 7.187474,-2.13742 6.105199,-2.16459 13.176327,0.33089 7.071128,2.49549 6.211525,1.83736 10.465376,8.01256 4.253851,6.1752 3.945259,5.13749 3.757006,12.63368 -0.188252,7.49619 0.172038,6.47529 -4.386412,12.42918 z"
       transform="matrix(0.49427628,0,0,0.48072212,59.083517,74.105419)" />
  </g>
  <g
     inkscape:groupmode="layer"
     id="layer3"
     inkscape:label="Layer 3">
    <text
       xml:space="preserve"
       style="font-style:normal;font-variant:normal;font-weight:normal;font-stretch:normal;font-size:44.90500259px;line-height:1.25;font-family:'Trebuchet MS';-inkscape-font-specification:'Trebuchet MS';letter-spacing:0px;word-spacing:0px;fill:#b3b3b3;fill-opacity:1;stroke:none;stroke-width:1.12262511;"
       x="18.868393"
       y="113.73201"
       id="text3727"
       transform="scale(0.87632765,1.1411257)"><tspan
         sodipodi:role="line"
         id="tspan3725"
         x="18.868393"
         y="113.73201"
         style="font-style:normal;font-variant:normal;font-weight:normal;font-stretch:normal;font-family:'Montserrat Subrayada';-inkscape-font-specification:'Montserrat Subrayada';stroke-width:1.12262511;fill:#b3b3b3;">ORSL</tspan></text>
  </g>
</svg>
